<svg xmlns="http://www.w3.org/2000/svg" viewBox="0 0 128 128"><defs><linearGradient id="a" x1="99%" y1="30%" x2="23%" y2="65%"><stop offset="18%" stop-color="#0052CC"/><stop offset="100%" stop-color="#2684FF"/></linearGradient><linearGradient id="b" x1="1%" y1="70%" x2="77%" y2="35%"><stop offset="18%" stop-color="#0052CC"/><stop offset="100%" stop-color="#2684FF"/></linearGradient></defs><path d="M9.26 88.55c-1.49 2.52-3.15 5.38-4.45 7.74a3.82 3.82 0 0 0 1.46 5.2l25.62 15.4a3.82 3.82 0 0 0 5.23-1.22c1.14-1.96 2.6-4.47 4.22-7.22 11.46-19.54 23.07-17.16 43.89-7.3l25.06 11.87a3.82 3.82 0 0 0 5.07-1.94l12.13-27.07a3.82 3.82 0 0 0-1.88-4.98c-7.06-3.3-21.17-9.94-35.08-16.5C52.65 44.13 22.68 55.44 9.26 88.55z" fill="url(#b)"/><path d="M118.74 39.45c1.49-2.52 3.15-5.38 4.45-7.74a3.82 3.82 0 0 0-1.46-5.2L96.11 11.11a3.82 3.82 0 0 0-5.23 1.22c-1.14 1.96-2.6 4.47-4.22 7.22-11.46 19.54-23.07 17.16-43.89 7.3L17.71 14.98a3.82 3.82 0 0 0-5.07 1.94L.51 43.99a3.82 3.82 0 0 0 1.88 4.98c7.06 3.3 21.17 9.94 35.08 16.5 37.88 17.4 67.85 6.09 81.27-26.02z" fill="url(#a)"/></svg>
