<svg xmlns="http://www.w3.org/2000/svg" viewBox="0 0 128 128"><path d="M18.76 96a12.45 12.45 0 0 1-10.86-6.36 12.57 12.57 0 0 1 .33-12.71L36.7 30.25a12.52 12.52 0 0 1 22.26 1.47l18.42 42.37a12.53 12.53 0 0 1-5.77 15.85 12.45 12.45 0 0 1-16.61-4.94L41.5 62.5l-12.18 27.12A12.45 12.45 0 0 1 18.76 96z" fill="#FF3D57"/><path d="M69.34 96a12.45 12.45 0 0 1-10.86-6.36 12.57 12.57 0 0 1 .33-12.71l28.47-46.68a12.52 12.52 0 0 1 22.26 1.47l18.42 42.37A12.53 12.53 0 0 1 122.2 90a12.45 12.45 0 0 1-16.62-4.94L92.08 62.5 79.9 89.62A12.45 12.45 0 0 1 69.34 96z" fill="#FFCB00"/><circle cx="12.56" cy="96.59" r="12.56" fill="#00D647"/></svg>
