<svg xmlns="http://www.w3.org/2000/svg" viewBox="0 0 48 48"><circle cx="24" cy="24" r="22" fill="#FF3C4D"/><path fill-rule="evenodd" clip-rule="evenodd" d="M24 17.3c-3.7 0-6.7 3-6.7 6.7s3 6.7 6.7 6.7 6.7-3 6.7-6.7-3-6.7-6.7-6.7zm-8.6 6.7a8.6 8.6 0 1 1 17.2 0 8.6 8.6 0 0 1-17.2 0z" fill="#fff"/><path fill-rule="evenodd" clip-rule="evenodd" d="M20.9 8.6l-.4 3.5a12.5 12.5 0 0 0-3.9 2.3L13.3 12l-3 3 2.5 3.3a12.5 12.5 0 0 0-2.3 3.9L7 22.6v4.3l3.5.4c.5 1.5 1.3 2.8 2.3 3.9L10.3 34.5l3 3 3.3-2.5c1.1 1 2.4 1.8 3.9 2.3l.4 3.5h4.3l.4-3.5c1.5-.5 2.8-1.3 3.9-2.3l3.3 2.5 3-3-2.5-3.3c1-1.1 1.8-2.4 2.3-3.9l3.5-.4v-4.3l-3.5-.4a12.5 12.5 0 0 0-2.3-3.9l2.5-3.3-3-3-3.3 2.5a12.5 12.5 0 0 0-3.9-2.3l-.4-3.5h-4.3z" fill="#fff" opacity="0.3"/></svg>
