<svg width="96" height="24" viewBox="0 0 96 24" fill="none" xmlns="http://www.w3.org/2000/svg">
<g clip-path="url(#clip0_17360_315)">
<path fill-rule="evenodd" clip-rule="evenodd" d="M12 7.31481C9.41228 7.31481 7.31481 9.41228 7.31481 12C7.31481 14.5877 9.41228 16.6852 12 16.6852C14.5877 16.6852 16.6852 14.5877 16.6852 12C16.6852 9.41228 14.5877 7.31481 12 7.31481ZM5.98148 12C5.98148 8.6759 8.6759 5.98148 12 5.98148C15.3241 5.98148 18.0185 8.6759 18.0185 12C18.0185 15.3241 15.3241 18.0185 12 18.0185C8.6759 18.0185 5.98148 15.3241 5.98148 12Z" fill="#FF3C4D"/>
<path fill-rule="evenodd" clip-rule="evenodd" d="M9.98262 0.577252C10.0274 0.246632 10.3096 0 10.6433 0H13.3567C13.6904 0 13.9726 0.24664 14.0174 0.577265L14.328 2.87283C15.2022 3.1059 16.0259 3.46187 16.7795 3.9213L18.6506 2.4963C18.916 2.29415 19.29 2.31935 19.5259 2.55526L21.4447 4.47408C21.6807 4.70999 21.7058 5.08398 21.5037 5.3494L20.0394 7.27218C20.4619 8.00892 20.7877 8.80864 20.9987 9.65443L23.4228 9.98262C23.7534 10.0274 24 10.3096 24 10.6433V13.3567C24 13.6904 23.7534 13.9726 23.4228 14.0174L20.9592 14.3509C20.7396 15.1721 20.4113 15.9487 19.9908 16.6642L21.5037 18.6506C21.7058 18.916 21.6807 19.29 21.4447 19.5259L19.5259 21.4447C19.29 21.6807 18.916 21.7058 18.6506 21.5037L16.6703 19.9954C15.9526 20.4197 15.1733 20.751 14.3489 20.973L14.0174 23.4227C13.9726 23.7534 13.6904 24 13.3567 24H10.6433C10.3096 24 10.0273 23.7534 9.98261 23.4227L9.65782 21.0222C8.80281 20.8113 7.99449 20.4832 7.25032 20.0559L5.34943 21.5037C5.084 21.7058 4.71 21.6807 4.47408 21.4447L2.55526 19.5259C2.31935 19.29 2.29415 18.916 2.49629 18.6506L3.90482 16.8011C3.44045 16.0403 3.08162 15.2081 2.84827 14.3246L0.577287 14.0174C0.246652 13.9727 0 13.6904 0 13.3567V10.6433C0 10.3096 0.246631 10.0274 0.577249 9.98262L2.81002 9.68041C3.0333 8.77215 3.38852 7.91582 3.85499 7.13324L2.49632 5.34943C2.29415 5.08401 2.31934 4.71 2.55526 4.47408L4.47408 2.55526C4.71 2.31934 5.084 2.29415 5.34942 2.49631L7.13917 3.85946C7.91988 3.39721 8.77352 3.04548 9.67845 2.8246L9.98262 0.577252ZM11.2258 1.33333L10.9371 3.4663C10.8986 3.75057 10.6826 3.97836 10.4008 4.03186C9.33458 4.23427 8.34303 4.6461 7.47082 5.22484C7.23422 5.38182 6.92416 5.37173 6.69828 5.19969L5.00497 3.90999L3.91 5.00496L5.19613 6.69353C5.36864 6.92002 5.37828 7.23106 5.22013 7.4678C4.63673 8.34113 4.22109 9.33484 4.01624 10.404C3.96233 10.6853 3.73475 10.9007 3.4509 10.9392L1.33333 11.2258V12.7742L3.48049 13.0647C3.75998 13.1025 3.98544 13.3121 4.0435 13.5881C4.26335 14.6332 4.68579 15.6034 5.26908 16.4562C5.43132 16.6934 5.4233 17.0079 5.24919 17.2365L3.90997 18.995L5.00497 20.09L6.80406 18.7197C7.02716 18.5498 7.33277 18.5377 7.56864 18.6894C8.41216 19.2319 9.36235 19.6204 10.3819 19.8164C10.663 19.8705 10.8783 20.098 10.9166 20.3817L11.2258 22.6667H12.7742L13.0887 20.3432C13.1263 20.0649 13.3343 19.8401 13.6088 19.7809C14.5989 19.5674 15.5214 19.1717 16.3395 18.6299C16.576 18.4733 16.8858 18.4835 17.1115 18.6554L18.995 20.09L20.09 18.995L18.6516 17.1065C18.4801 16.8813 18.4695 16.5724 18.6251 16.336C19.1627 15.5192 19.555 14.5993 19.7658 13.6122C19.8245 13.3371 20.0496 13.1285 20.3284 13.0908L22.6667 12.7742V11.2257L20.3594 10.9134C20.0764 10.8751 19.8492 10.6607 19.7946 10.3804C19.5975 9.36976 19.2106 8.42738 18.6728 7.58986C18.5214 7.35403 18.5336 7.04867 18.7034 6.82571L20.09 5.00499L18.995 3.90997L17.2152 5.26548C16.9867 5.4395 16.6724 5.44762 16.4352 5.28562C15.5884 4.70722 14.6261 4.28723 13.5898 4.06657C13.3145 4.00796 13.1057 3.78281 13.0679 3.50392L12.7742 1.33333H11.2258Z" fill="#FF3C4D"/>
<path opacity="0.9" fill-rule="evenodd" clip-rule="evenodd" d="M41.783 14.1547C41.783 14.9948 41.64 15.7529 41.354 16.429C41.0679 17.105 40.6779 17.6793 40.1838 18.1519C39.6898 18.6245 39.1047 18.9887 38.4286 19.2447C37.7525 19.5007 37.0179 19.6287 36.2248 19.6287C35.4317 19.6287 34.6972 19.5007 34.0211 19.2447C33.345 18.9887 32.7567 18.6245 32.2561 18.1519C31.7555 17.6793 31.3655 17.105 31.086 16.429C30.8064 15.7529 30.6667 14.9948 30.6667 14.1547V5.33333H33.124V14.0563C33.124 14.4632 33.176 14.8668 33.28 15.2672C33.384 15.6676 33.5563 16.0253 33.7968 16.3404C34.0373 16.6554 34.3559 16.9114 34.7524 17.1083C35.149 17.3052 35.6398 17.4037 36.2248 17.4037C36.8099 17.4037 37.3007 17.3052 37.6973 17.1083C38.0938 16.9114 38.4124 16.6554 38.6529 16.3404C38.8934 16.0253 39.0657 15.6676 39.1697 15.2672C39.2737 14.8668 39.3257 14.4632 39.3257 14.0563V5.33333H41.783V14.1547ZM45.5822 9.82278V11.142H45.6407C45.7577 10.9583 45.9104 10.7712 46.099 10.5809C46.2875 10.3905 46.5183 10.2199 46.7913 10.0689C47.0643 9.91795 47.3731 9.79324 47.7177 9.69479C48.0622 9.59634 48.449 9.54711 48.8781 9.54711C49.5411 9.54711 50.1522 9.6751 50.7113 9.93108C51.2704 10.1871 51.7514 10.5382 52.1545 10.9845C52.5575 11.4308 52.8695 11.9559 53.0906 12.5598C53.3116 13.1636 53.4221 13.8134 53.4221 14.5091C53.4221 15.2049 53.3149 15.8579 53.1003 16.4683C52.8858 17.0788 52.5803 17.6104 52.1837 18.0633C51.7872 18.5162 51.3061 18.8772 50.7405 19.1463C50.175 19.4154 49.5346 19.5499 48.8196 19.5499C48.1565 19.5499 47.5487 19.4121 46.9961 19.1364C46.4435 18.8608 46.0177 18.4866 45.7187 18.0141H45.6797V24H43.3394V9.82278H45.5822ZM51.0428 14.5091C51.0428 14.1416 50.9876 13.7773 50.8771 13.4163C50.7665 13.0553 50.6008 12.7304 50.3797 12.4416C50.1587 12.1528 49.8792 11.9198 49.5411 11.7426C49.2031 11.5654 48.8066 11.4768 48.3515 11.4768C47.9224 11.4768 47.5389 11.5687 47.2009 11.7525C46.8628 11.9362 46.5735 12.1725 46.333 12.4613C46.0925 12.7501 45.9104 13.0783 45.7869 13.4458C45.6634 13.8134 45.6017 14.181 45.6017 14.5485C45.6017 14.9161 45.6634 15.2803 45.7869 15.6413C45.9104 16.0023 46.0925 16.3272 46.333 16.616C46.5735 16.9048 46.8628 17.1378 47.2009 17.315C47.5389 17.4923 47.9224 17.5809 48.3515 17.5809C48.8066 17.5809 49.2031 17.489 49.5411 17.3052C49.8792 17.1214 50.1587 16.8851 50.3797 16.5963C50.6008 16.3075 50.7665 15.9794 50.8771 15.6118C50.9876 15.2442 51.0428 14.8767 51.0428 14.5091ZM54.5494 5.33333H57.0067V11.3586H57.0652L62.8379 5.33333H66.1533L59.6981 11.7721L66.5824 19.2743H63.1305L57.0652 12.2841H57.0067V19.2743H54.5494V5.33333ZM72.6243 13.6034C72.6243 13.3014 72.582 13.0127 72.4975 12.737C72.413 12.4613 72.2798 12.2185 72.0977 12.0084C71.9157 11.7984 71.6849 11.631 71.4054 11.5063C71.1259 11.3816 70.7976 11.3193 70.4205 11.3193C69.7184 11.3193 69.1236 11.5326 68.6361 11.9592C68.1485 12.3858 67.8787 12.9339 67.8267 13.6034H72.6243ZM74.9646 14.6667V14.9817C74.9646 15.0867 74.9581 15.1917 74.9451 15.2968H67.8267C67.8527 15.6381 67.9405 15.9498 68.09 16.2321C68.2395 16.5143 68.4378 16.7571 68.6848 16.9606C68.9319 17.1641 69.2114 17.3249 69.5234 17.443C69.8355 17.5612 70.1605 17.6202 70.4985 17.6202C71.0836 17.6202 71.5777 17.512 71.9807 17.2954C72.3838 17.0788 72.7153 16.7801 72.9753 16.3994L74.5355 17.6596C73.6124 18.9198 72.2733 19.5499 70.518 19.5499C69.79 19.5499 69.1204 19.4351 68.5093 19.2053C67.8982 18.9756 67.3684 18.6507 66.9199 18.2307C66.4713 17.8106 66.1203 17.2954 65.8667 16.6849C65.6132 16.0745 65.4864 15.3821 65.4864 14.6076C65.4864 13.8462 65.6132 13.1538 65.8667 12.5302C66.1203 11.9067 66.468 11.3751 66.9101 10.9353C67.3522 10.4955 67.8755 10.1542 68.48 9.91139C69.0846 9.66854 69.7379 9.54711 70.44 9.54711C71.0901 9.54711 71.6914 9.65541 72.244 9.87201C72.7966 10.0886 73.2744 10.4102 73.6774 10.8368C74.0805 11.2635 74.3958 11.7951 74.6233 12.4318C74.8508 13.0684 74.9646 13.8134 74.9646 14.6667ZM82.5667 13.6034C82.5667 13.3014 82.5244 13.0127 82.4399 12.737C82.3554 12.4613 82.2221 12.2185 82.0401 12.0084C81.8581 11.7984 81.6273 11.631 81.3478 11.5063C81.0683 11.3816 80.74 11.3193 80.3629 11.3193C79.6608 11.3193 79.066 11.5326 78.5784 11.9592C78.0909 12.3858 77.8211 12.9339 77.7691 13.6034H82.5667ZM84.907 14.6667V14.9817C84.907 15.0867 84.9005 15.1917 84.8875 15.2968H77.7691C77.7951 15.6381 77.8829 15.9498 78.0324 16.2321C78.1819 16.5143 78.3802 16.7571 78.6272 16.9606C78.8742 17.1641 79.1538 17.3249 79.4658 17.443C79.7778 17.5612 80.1029 17.6202 80.4409 17.6202C81.026 17.6202 81.5201 17.512 81.9231 17.2954C82.3262 17.0788 82.6577 16.7801 82.9177 16.3994L84.4779 17.6596C83.5548 18.9198 82.2157 19.5499 80.4604 19.5499C79.7323 19.5499 79.0628 19.4351 78.4517 19.2053C77.8406 18.9756 77.3108 18.6507 76.8622 18.2307C76.4137 17.8106 76.0626 17.2954 75.8091 16.6849C75.5556 16.0745 75.4288 15.3821 75.4288 14.6076C75.4288 13.8462 75.5556 13.1538 75.8091 12.5302C76.0626 11.9067 76.4104 11.3751 76.8525 10.9353C77.2945 10.4955 77.8179 10.1542 78.4224 9.91139C79.027 9.66854 79.6803 9.54711 80.3824 9.54711C81.0325 9.54711 81.6338 9.65541 82.1864 9.87201C82.739 10.0886 83.2168 10.4102 83.6198 10.8368C84.0229 11.2635 84.3382 11.7951 84.5657 12.4318C84.7932 13.0684 84.907 13.8134 84.907 14.6667ZM88.16 9.82278V11.142H88.2185C88.3356 10.9583 88.4883 10.7712 88.6768 10.5809C88.8654 10.3905 89.0962 10.2199 89.3692 10.0689C89.6422 9.91795 89.951 9.79324 90.2956 9.69479C90.6401 9.59634 91.0269 9.54711 91.4559 9.54711C92.119 9.54711 92.7301 9.6751 93.2892 9.93108C93.8482 10.1871 94.3293 10.5382 94.7323 10.9845C95.1354 11.4308 95.4474 11.9559 95.6685 12.5598C95.8895 13.1636 96 13.8134 96 14.5091C96 15.2049 95.8927 15.8579 95.6782 16.4683C95.4637 17.0788 95.1581 17.6104 94.7616 18.0633C94.365 18.5162 93.884 18.8772 93.3184 19.1463C92.7528 19.4154 92.1125 19.5499 91.3974 19.5499C90.7344 19.5499 90.1265 19.4121 89.574 19.1364C89.0214 18.8608 88.5956 18.4866 88.2966 18.0141H88.2575V24H85.9173V9.82278H88.16ZM93.6207 14.5091C93.6207 14.1416 93.5654 13.7773 93.4549 13.4163C93.3444 13.0553 93.1787 12.7304 92.9576 12.4416C92.7366 12.1528 92.4571 11.9198 92.119 11.7426C91.781 11.5654 91.3844 11.4768 90.9294 11.4768C90.5003 11.4768 90.1168 11.5687 89.7787 11.7525C89.4407 11.9362 89.1514 12.1725 88.9109 12.4613C88.6703 12.7501 88.4883 13.0783 88.3648 13.4458C88.2413 13.8134 88.1795 14.181 88.1795 14.5485C88.1795 14.9161 88.2413 15.2803 88.3648 15.6413C88.4883 16.0023 88.6703 16.3272 88.9109 16.616C89.1514 16.9048 89.4407 17.1378 89.7787 17.315C90.1168 17.4923 90.5003 17.5809 90.9294 17.5809C91.3844 17.5809 91.781 17.489 92.119 17.3052C92.4571 17.1214 92.7366 16.8851 92.9576 16.5963C93.1787 16.3075 93.3444 15.9794 93.4549 15.6118C93.5654 15.2442 93.6207 14.8767 93.6207 14.5091Z" fill="#1C2024"/>
</g>
<defs>
<clipPath id="clip0_17360_315">
<rect width="96" height="24" fill="white"/>
</clipPath>
</defs>
</svg>
